<svg width="233" height="49" viewBox="0 0 233 49" fill="none" xmlns="http://www.w3.org/2000/svg">
<g filter="url(#filter0_d)">
<path d="M87.1338 22.177C87.1338 25.7219 86.2549 28.4465 84.497 30.3508C82.7392 32.2551 80.2197 33.2073 76.9384 33.2073C73.6572 33.2073 71.1377 32.2551 69.3799 30.3508C67.622 28.4465 66.7431 25.7122 66.7431 22.1477C66.7431 18.5833 67.622 15.8635 69.3799 13.9885C71.1474 12.1038 73.6767 11.1614 76.9677 11.1614C80.2588 11.1614 82.7734 12.1086 84.5117 14.0032C86.2597 15.8977 87.1338 18.6223 87.1338 22.177ZM71.5039 22.177C71.5039 24.5696 71.958 26.3713 72.8662 27.5823C73.7744 28.7932 75.1318 29.3987 76.9384 29.3987C80.5615 29.3987 82.373 26.9915 82.373 22.177C82.373 17.3528 80.5713 14.9407 76.9677 14.9407C75.1611 14.9407 73.7988 15.551 72.8808 16.7717C71.9629 17.9827 71.5039 19.7844 71.5039 22.177ZM105.888 32.9143H101.42V23.3489C101.42 22.1672 101.21 21.2834 100.79 20.6975C100.37 20.1018 99.7013 19.804 98.7834 19.804C97.5334 19.804 96.63 20.2239 96.0734 21.0637C95.5168 21.8938 95.2384 23.2756 95.2384 25.2092V32.9143H90.7707V16.5374H94.1838L94.7843 18.6321H95.0334C95.5314 17.8411 96.215 17.2454 97.0841 16.845C97.9631 16.4348 98.9591 16.2297 100.072 16.2297C101.977 16.2297 103.422 16.7473 104.408 17.7825C105.395 18.8079 105.888 20.2922 105.888 22.2356V32.9143ZM128.158 22.0012C128.158 25.5266 127.152 28.2268 125.14 30.1018C123.138 31.9768 120.243 32.9143 116.453 32.9143H110.389V11.4983H117.113C120.609 11.4983 123.324 12.4211 125.257 14.2668C127.191 16.1125 128.158 18.6907 128.158 22.0012ZM123.441 22.1184C123.441 17.5188 121.41 15.219 117.347 15.219H114.93V29.1643H116.878C121.253 29.1643 123.441 26.8157 123.441 22.1184ZM138.577 19.4084C137.629 19.4084 136.887 19.7112 136.35 20.3167C135.813 20.9124 135.505 21.762 135.427 22.8655H141.697C141.677 21.762 141.389 20.9124 140.833 20.3167C140.276 19.7112 139.524 19.4084 138.577 19.4084ZM139.207 33.2073C136.57 33.2073 134.509 32.4797 133.025 31.0247C131.541 29.5696 130.798 27.509 130.798 24.843C130.798 22.0989 131.482 19.9797 132.849 18.4856C134.226 16.9817 136.126 16.2297 138.547 16.2297C140.862 16.2297 142.664 16.8889 143.953 18.2073C145.242 19.5256 145.886 21.3469 145.886 23.6711V25.8391H135.325C135.374 27.1086 135.75 28.0999 136.453 28.8127C137.156 29.5256 138.142 29.8821 139.412 29.8821C140.398 29.8821 141.331 29.7795 142.21 29.5745C143.088 29.3694 144.006 29.0422 144.963 28.593V32.05C144.182 32.4407 143.347 32.7288 142.459 32.9143C141.57 33.1096 140.486 33.2073 139.207 33.2073ZM153.537 32.9143H149.069V10.1213H153.537V32.9143ZM157.599 12.304C157.599 10.8489 158.409 10.1213 160.03 10.1213C161.651 10.1213 162.462 10.8489 162.462 12.304C162.462 12.9973 162.257 13.5393 161.847 13.9299C161.446 14.3108 160.841 14.5012 160.03 14.5012C158.409 14.5012 157.599 13.7688 157.599 12.304ZM162.257 32.9143H157.789V16.5374H162.257V32.9143ZM170.405 32.9143L164.165 16.5374H168.838L172.002 25.8684C172.354 27.05 172.573 28.1682 172.661 29.2229H172.749C172.798 28.2854 173.018 27.1672 173.408 25.8684L176.558 16.5374H181.231L174.99 32.9143H170.405ZM189.921 19.4084C188.974 19.4084 188.232 19.7112 187.695 20.3167C187.158 20.9124 186.85 21.762 186.772 22.8655H193.041C193.022 21.762 192.734 20.9124 192.177 20.3167C191.62 19.7112 190.869 19.4084 189.921 19.4084ZM190.551 33.2073C187.914 33.2073 185.854 32.4797 184.369 31.0247C182.885 29.5696 182.143 27.509 182.143 24.843C182.143 22.0989 182.827 19.9797 184.194 18.4856C185.571 16.9817 187.47 16.2297 189.892 16.2297C192.206 16.2297 194.008 16.8889 195.297 18.2073C196.586 19.5256 197.231 21.3469 197.231 23.6711V25.8391H186.669C186.718 27.1086 187.094 28.0999 187.797 28.8127C188.5 29.5256 189.487 29.8821 190.756 29.8821C191.743 29.8821 192.675 29.7795 193.554 29.5745C194.433 29.3694 195.351 29.0422 196.308 28.593V32.05C195.527 32.4407 194.692 32.7288 193.803 32.9143C192.914 33.1096 191.83 33.2073 190.551 33.2073ZM209.554 16.2297C210.16 16.2297 210.663 16.2737 211.063 16.3616L210.726 20.551C210.365 20.4534 209.925 20.4045 209.408 20.4045C207.982 20.4045 206.869 20.7708 206.068 21.5032C205.277 22.2356 204.881 23.261 204.881 24.5793V32.9143H200.414V16.5374H203.797L204.457 19.2913H204.676C205.184 18.3733 205.868 17.636 206.727 17.0793C207.596 16.5129 208.539 16.2297 209.554 16.2297ZM211.243 16.5374H216.136L219.226 25.7512C219.49 26.552 219.671 27.4993 219.768 28.593H219.856C219.964 27.5872 220.174 26.6399 220.486 25.7512L223.518 16.5374H228.308L221.38 35.009C220.745 36.718 219.837 37.9973 218.655 38.8469C217.483 39.6965 216.111 40.1213 214.539 40.1213C213.767 40.1213 213.011 40.0383 212.268 39.8723V36.3274C212.805 36.4543 213.391 36.5178 214.026 36.5178C214.817 36.5178 215.506 36.2737 216.092 35.7854C216.687 35.3069 217.151 34.5793 217.483 33.6028L217.747 32.7971L211.243 16.5374Z" fill="white"/>
<path d="M46.7359 39.3726C44.0411 39.2994 41.9074 36.6948 41.9702 33.5551C42.033 30.4154 44.2685 27.9295 46.9633 28.0026C49.6581 28.0758 51.7918 30.6804 51.729 33.8201C51.6662 36.9598 49.4307 39.4457 46.7359 39.3726Z" stroke="white" stroke-width="3" stroke-miterlimit="10"/>
<path d="M15.4377 39.3731C12.7421 39.3731 10.5569 36.8272 10.5569 33.6866C10.5569 30.5461 12.7421 28.0001 15.4377 28.0001C18.1332 28.0001 20.3184 30.5461 20.3184 33.6866C20.3184 36.8272 18.1332 39.3731 15.4377 39.3731Z" stroke="white" stroke-width="3" stroke-miterlimit="10"/>
<path d="M37.841 33.5651C37.8438 32.2169 38.0749 30.8827 38.5212 29.6388C38.9675 28.395 39.6202 27.266 40.4418 26.3168C43.909 22.2938 49.533 22.2938 53.0001 26.3168" stroke="white" stroke-width="3" stroke-miterlimit="10" stroke-linecap="round" stroke-linejoin="round"/>
<path d="M6.25815 33.5648C6.25815 27.8741 10.2173 23.2624 15.1015 23.2624C19.9858 23.2624 23.944 27.8751 23.944 33.5658" stroke="white" stroke-width="3" stroke-miterlimit="10" stroke-linecap="round" stroke-linejoin="round"/>
<path d="M25.2079 11.488H8.78503V17.376H25.2079V11.488Z" stroke="white" stroke-width="3" stroke-miterlimit="10" stroke-linecap="round" stroke-linejoin="round"/>
<path d="M47.9474 23.2628L40.367 5.59998H35.3133" stroke="white" stroke-width="3" stroke-miterlimit="10" stroke-linecap="round" stroke-linejoin="round"/>
<path d="M37.8409 33.6868H23.9439" stroke="white" stroke-width="3" stroke-miterlimit="10" stroke-linecap="round" stroke-linejoin="round"/>
<path d="M25.2079 17.3749C25.2079 17.3749 30.2615 39.4532 40.367 17.3749" stroke="white" stroke-width="3" stroke-miterlimit="10" stroke-linecap="round" stroke-linejoin="round"/>
<path d="M8.78479 17.3749C8.78479 17.3749 4.99413 24.7344 6.25798 33.5653" stroke="white" stroke-width="3" stroke-miterlimit="10" stroke-linecap="round" stroke-linejoin="round"/>
</g>
<defs>
<filter id="filter0_d" x="0.5" y="4.09998" width="231.808" height="44.7745" filterUnits="userSpaceOnUse" color-interpolation-filters="sRGB">
<feFlood flood-opacity="0" result="BackgroundImageFix"/>
<feColorMatrix in="SourceAlpha" type="matrix" values="0 0 0 0 0 0 0 0 0 0 0 0 0 0 0 0 0 0 127 0"/>
<feOffset dy="4"/>
<feGaussianBlur stdDeviation="2"/>
<feColorMatrix type="matrix" values="0 0 0 0 0 0 0 0 0 0 0 0 0 0 0 0 0 0 0.25 0"/>
<feBlend mode="normal" in2="BackgroundImageFix" result="effect1_dropShadow"/>
<feBlend mode="normal" in="SourceGraphic" in2="effect1_dropShadow" result="shape"/>
</filter>
</defs>
</svg>
